<svg xmlns="http://www.w3.org/2000/svg" viewBox="0 0 80 80">
  <g transform="translate(17.329 10)">
    <path d="M 29.999 14.999 L 29.999 0 L 15 0 L 15 14.999 L 0 14.999 L 0 29.999 L 15 29.999 L 15 44.998 L 29.999 44.998 L 29.999 29.999 L 44.998 29.999 L 44.998 14.999 Z" fill="#111"></path>
    <path d="M 14.999 29.999 C 14.999 31.969 15.387 33.92 16.14 35.74 C 16.894 37.56 17.999 39.214 19.391 40.607 C 20.784 42 22.438 43.105 24.258 43.859 C 26.077 44.612 28.028 45 29.998 45 L 44.998 45 L 44.998 60.001 L 29.999 60.001 C 28.03 60.001 26.079 59.613 24.259 58.859 C 22.439 58.105 20.785 57 19.393 55.607 C 18 54.214 16.895 52.561 16.141 50.741 C 15.387 48.921 14.999 46.97 14.999 45 L 14.999 45 L 14.999 29.999 Z" fill="#FF4B33"></path>
  </g>
</svg>